# xmcd
#
# Track frame offsets:
#	150
#	15211
#	23194
#	42727
#	50131
#	58846
#	70921
#	83488
#	92889
#	101662
#	114407
#	129237
#	137575
#
# Disc length: 1855 seconds
# Revision: 0
# Processed by: cddbd v1.5.2PL0 Copyright (c) Steve Scherf et al.
# Submitted via: dBpowerAMP V12.0
#
DISCID=ab073d0d
DTITLE=Elisabeth Botn - Jeg Vet Om Et Sted
DYEAR=2002
DGENRE=Gospel
TTITLE0=Jeg Vet Om Et Sted
TTITLE1=Lukk Opp Døra Min Venn
TTITLE2=Jesus Passer På Meg
TTITLE3=I Blant Er Jeg Lei Meg
TTITLE4=Halleluja, Ære Være Gud
TTITLE5=Gud Er Bare God Mot Meg
TTITLE6=Det Er Åpnet En Vei
TTITLE7=Jesus Kom Inn
TTITLE8=Hellé, Hellé, Halleluja
TTITLE9=Jesus Her Er Jeg
TTITLE10=Halluluja Du Bor I Meg
TTITLE11=Jeg Elsker Å Prise Deg
TTITLE12=Apell
EXTD=
EXTT0=
EXTT1=
EXTT2=
EXTT3=
EXTT4=
EXTT5=
EXTT6=
EXTT7=
EXTT8=
EXTT9=
EXTT10=
EXTT11=
EXTT12=
PLAYORDER=
